<svg width="1024" height="1024" viewBox="0 0 1024 1024" fill="none" xmlns="http://www.w3.org/2000/svg">
  <defs>
    <linearGradient id="bg" x1="150" y1="120" x2="900" y2="920" gradientUnits="userSpaceOnUse">
      <stop stop-color="#FFB56B"/>
      <stop offset="0.55" stop-color="#F46B45"/>
      <stop offset="1" stop-color="#A63B39"/>
    </linearGradient>
    <linearGradient id="paper" x1="340" y1="230" x2="710" y2="760" gradientUnits="userSpaceOnUse">
      <stop stop-color="#FFF9F1"/>
      <stop offset="1" stop-color="#FFE7CC"/>
    </linearGradient>
    <linearGradient id="scan" x1="348" y1="360" x2="676" y2="625" gradientUnits="userSpaceOnUse">
      <stop stop-color="#FFF7EF" stop-opacity="0"/>
      <stop offset="0.5" stop-color="#FFFFFF" stop-opacity="0.9"/>
      <stop offset="1" stop-color="#FFF7EF" stop-opacity="0"/>
    </linearGradient>
    <filter id="shadow" x="220" y="170" width="584" height="656" filterUnits="userSpaceOnUse" color-interpolation-filters="sRGB">
      <feDropShadow dx="0" dy="24" stdDeviation="26" flood-color="#5F1E22" flood-opacity="0.26"/>
    </filter>
  </defs>

  <rect width="1024" height="1024" rx="224" fill="url(#bg)"/>
  <circle cx="782" cy="230" r="118" fill="#FFD7A0" fill-opacity="0.18"/>
  <circle cx="244" cy="836" r="164" fill="#7E1F31" fill-opacity="0.18"/>

  <g filter="url(#shadow)">
    <rect x="302" y="200" width="420" height="590" rx="82" fill="url(#paper)"/>
    <path d="M612 200H642C686.183 200 722 235.817 722 280V310H692C647.817 310 612 274.183 612 230V200Z" fill="#FFD29A"/>
    <path d="M612 200H642C686.183 200 722 235.817 722 280V310H692C647.817 310 612 274.183 612 230V200Z" fill="#E8955C" fill-opacity="0.2"/>
    <rect x="362" y="344" width="300" height="18" rx="9" fill="#D65B47"/>
    <rect x="362" y="394" width="244" height="18" rx="9" fill="#E79A63"/>
    <rect x="362" y="444" width="266" height="18" rx="9" fill="#E79A63"/>
    <rect x="362" y="494" width="220" height="18" rx="9" fill="#E79A63"/>
    <rect x="362" y="580" width="120" height="18" rx="9" fill="#D65B47"/>
    <rect x="520" y="580" width="142" height="18" rx="9" fill="#D65B47"/>
    <rect x="348" y="540" width="328" height="94" rx="28" stroke="#AF3C41" stroke-width="12" stroke-dasharray="22 18"/>
    <rect x="338" y="572" width="348" height="24" rx="12" fill="url(#scan)"/>
  </g>

  <path d="M766 646C766 715.588 709.588 772 640 772C570.412 772 514 715.588 514 646C514 576.412 570.412 520 640 520C709.588 520 766 576.412 766 646Z" fill="#213049"/>
  <path d="M610 646L635 671L681 621" stroke="#FFF4E7" stroke-width="28" stroke-linecap="round" stroke-linejoin="round"/>
</svg>
